<svg xmlns="http://www.w3.org/2000/svg" xmlns:xlink="http://www.w3.org/1999/xlink" width="48" zoomAndPan="magnify" viewBox="0 0 36 35.25" height="47" preserveAspectRatio="xMidYMid meet" version="1.0"><defs><g/><clipPath id="fd82602a1f"><path d="M 0.375 0 L 35.625 0 L 35.625 34.515625 L 0.375 34.515625 Z M 0.375 0 " clip-rule="nonzero"/></clipPath><clipPath id="80c6deb6b5"><path d="M 2.6875 7.234375 L 31.421875 7.234375 L 31.421875 29.191406 L 2.6875 29.191406 Z M 2.6875 7.234375 " clip-rule="nonzero"/></clipPath><clipPath id="68514b14d3"><path d="M 4.15625 7.234375 L 29.933594 7.234375 C 30.324219 7.234375 30.695312 7.386719 30.972656 7.664062 C 31.246094 7.9375 31.402344 8.3125 31.402344 8.703125 L 31.402344 27.722656 C 31.402344 28.113281 31.246094 28.484375 30.972656 28.761719 C 30.695312 29.035156 30.324219 29.191406 29.933594 29.191406 L 4.15625 29.191406 C 3.765625 29.191406 3.394531 29.035156 3.117188 28.761719 C 2.84375 28.484375 2.6875 28.113281 2.6875 27.722656 L 2.6875 8.703125 C 2.6875 8.3125 2.84375 7.9375 3.117188 7.664062 C 3.394531 7.386719 3.765625 7.234375 4.15625 7.234375 Z M 4.15625 7.234375 " clip-rule="nonzero"/></clipPath></defs><g clip-path="url(#fd82602a1f)"><path fill="#fe705a" d="M 0.375 10.707031 C 0.375 6.136719 3.191406 2.019531 7.628906 0.929688 C 15.050781 -0.894531 26.257812 -2.394531 31.773438 3.117188 C 36.425781 7.773438 36.082031 16.484375 34.765625 23.550781 C 33.511719 30.289062 27.242188 34.515625 20.390625 34.515625 L 5.882812 34.515625 C 2.839844 34.515625 0.375 32.050781 0.375 29.007812 Z M 0.375 10.707031 " fill-opacity="1" fill-rule="nonzero"/></g><path fill="#ffffff" d="M 22.289062 23.410156 C 22.320312 23.394531 22.351562 23.195312 22.382812 22.820312 C 22.429688 22.425781 22.476562 21.96875 22.523438 21.445312 C 22.570312 20.925781 22.609375 20.390625 22.644531 19.835938 C 22.675781 19.285156 22.699219 18.828125 22.714844 18.464844 C 22.714844 18.261719 22.714844 17.96875 22.714844 17.589844 C 22.730469 17.210938 22.738281 16.792969 22.738281 16.335938 C 22.738281 15.863281 22.738281 15.375 22.738281 14.871094 C 22.753906 14.363281 22.753906 13.890625 22.738281 13.449219 C 22.738281 12.992188 22.730469 12.589844 22.714844 12.242188 C 22.714844 11.894531 22.714844 11.644531 22.714844 11.488281 C 22.714844 11.421875 22.691406 11.3125 22.644531 11.15625 C 22.609375 10.996094 22.570312 10.832031 22.523438 10.660156 C 22.492188 10.484375 22.453125 10.328125 22.40625 10.183594 C 22.359375 10.027344 22.320312 9.917969 22.289062 9.855469 C 21.734375 9.804688 21.175781 9.839844 20.609375 9.949219 C 20.039062 10.058594 19.480469 10.183594 18.929688 10.328125 C 18.375 10.46875 17.824219 10.585938 17.273438 10.683594 C 16.734375 10.777344 16.222656 10.777344 15.734375 10.683594 C 15.609375 10.414062 15.726562 10.144531 16.089844 9.878906 C 16.46875 9.59375 17.011719 9.347656 17.722656 9.144531 C 18.429688 8.921875 19.257812 8.75 20.207031 8.625 C 21.152344 8.480469 22.128906 8.417969 23.140625 8.433594 C 24.148438 8.449219 25.144531 8.5625 26.121094 8.765625 C 27.097656 8.953125 27.972656 9.269531 28.746094 9.710938 C 29.519531 10.136719 30.140625 10.699219 30.617188 11.390625 C 31.089844 12.085938 31.324219 12.945312 31.324219 13.96875 C 31.324219 14.332031 31.261719 14.71875 31.136719 15.128906 C 31.011719 15.539062 30.84375 15.949219 30.640625 16.359375 C 30.449219 16.769531 30.230469 17.164062 29.976562 17.542969 C 29.738281 17.90625 29.503906 18.214844 29.265625 18.464844 C 29.15625 18.589844 28.976562 18.789062 28.722656 19.058594 C 28.46875 19.308594 28.179688 19.601562 27.847656 19.933594 C 27.53125 20.261719 27.191406 20.609375 26.832031 20.972656 C 26.46875 21.320312 26.121094 21.660156 25.789062 21.992188 C 25.472656 22.304688 25.183594 22.589844 24.914062 22.84375 C 24.660156 23.09375 24.472656 23.285156 24.347656 23.410156 C 24.300781 23.789062 24.234375 24.136719 24.15625 24.449219 C 24.078125 24.765625 23.960938 25.011719 23.800781 25.183594 C 23.644531 25.359375 23.4375 25.4375 23.1875 25.421875 C 22.949219 25.421875 22.652344 25.296875 22.289062 25.042969 C 21.941406 25.277344 21.570312 25.609375 21.175781 26.035156 C 20.796875 26.476562 20.402344 26.894531 19.992188 27.289062 C 19.582031 27.699219 19.15625 28.023438 18.714844 28.261719 C 18.273438 28.496094 17.832031 28.519531 17.390625 28.332031 L 17.390625 27.503906 Z M 24.347656 21.753906 C 25.339844 21.34375 26.214844 20.746094 26.972656 19.957031 C 27.746094 19.152344 28.351562 18.277344 28.792969 17.328125 C 29.25 16.382812 29.527344 15.429688 29.621094 14.46875 C 29.714844 13.488281 29.597656 12.628906 29.265625 11.886719 C 28.9375 11.148438 28.367188 10.578125 27.5625 10.183594 C 26.773438 9.773438 25.703125 9.664062 24.347656 9.855469 Z M 24.347656 21.753906 " fill-opacity="1" fill-rule="nonzero"/><path fill="#ffffff" d="M 7.847656 24.898438 C 7.832031 24.617188 7.808594 24.191406 7.777344 23.621094 C 7.761719 23.039062 7.738281 22.382812 7.707031 21.660156 C 7.691406 20.917969 7.664062 20.144531 7.632812 19.339844 C 7.601562 18.535156 7.570312 17.769531 7.539062 17.046875 C 7.523438 16.320312 7.507812 15.671875 7.492188 15.105469 C 7.476562 14.523438 7.46875 14.089844 7.46875 13.804688 C 7.46875 13.710938 7.460938 13.550781 7.445312 13.332031 C 7.445312 13.09375 7.445312 12.851562 7.445312 12.597656 C 7.445312 12.328125 7.445312 12.078125 7.445312 11.839844 C 7.460938 11.605469 7.46875 11.4375 7.46875 11.34375 C 7.28125 11.4375 7.050781 11.605469 6.78125 11.839844 C 6.53125 12.078125 6.253906 12.335938 5.953125 12.621094 C 5.65625 12.890625 5.347656 13.140625 5.03125 13.378906 C 4.730469 13.601562 4.449219 13.742188 4.179688 13.804688 C 3.816406 13.582031 3.652344 13.316406 3.683594 13 C 3.714844 12.667969 3.886719 12.320312 4.203125 11.960938 C 4.535156 11.582031 4.96875 11.195312 5.503906 10.800781 C 6.058594 10.40625 6.65625 10.027344 7.304688 9.664062 C 7.964844 9.300781 8.644531 8.96875 9.335938 8.671875 C 10.03125 8.371094 10.6875 8.125 11.300781 7.9375 C 11.933594 7.734375 12.484375 7.605469 12.957031 7.558594 C 13.445312 7.496094 13.808594 7.527344 14.046875 7.652344 C 14.488281 8.109375 14.699219 8.679688 14.683594 9.355469 C 14.667969 10.035156 14.519531 10.761719 14.234375 11.535156 C 13.949219 12.304688 13.582031 13.109375 13.125 13.945312 C 12.664062 14.78125 12.222656 15.59375 11.796875 16.382812 C 11.371094 17.15625 11.007812 17.890625 10.710938 18.582031 C 10.410156 19.261719 10.269531 19.84375 10.285156 20.335938 C 10.300781 20.824219 10.527344 21.1875 10.96875 21.421875 C 11.410156 21.660156 12.160156 21.714844 13.21875 21.589844 C 13.753906 21.460938 14.3125 21.265625 14.898438 20.996094 C 15.480469 20.714844 16.050781 20.40625 16.601562 20.074219 C 17.152344 19.726562 17.664062 19.363281 18.136719 18.984375 C 18.628906 18.605469 19.039062 18.253906 19.367188 17.921875 C 19.921875 18.0625 20.230469 18.269531 20.292969 18.535156 C 20.355469 18.804688 20.246094 19.105469 19.960938 19.433594 C 19.691406 19.765625 19.28125 20.113281 18.730469 20.476562 C 18.179688 20.839844 17.554688 21.195312 16.859375 21.539062 C 16.167969 21.871094 15.441406 22.171875 14.683594 22.441406 C 13.941406 22.707031 13.226562 22.914062 12.53125 23.054688 C 11.851562 23.195312 11.238281 23.261719 10.6875 23.246094 C 10.148438 23.230469 9.753906 23.09375 9.503906 22.84375 C 9.503906 22.9375 9.496094 23.101562 9.480469 23.339844 C 9.464844 23.574219 9.433594 23.828125 9.386719 24.097656 C 9.335938 24.347656 9.257812 24.59375 9.148438 24.828125 C 9.039062 25.050781 8.878906 25.207031 8.675781 25.300781 C 8.5 25.382812 8.335938 25.367188 8.179688 25.253906 C 8.035156 25.144531 7.925781 25.027344 7.847656 24.898438 Z M 9.101562 19.695312 L 13.453125 9.972656 C 13.34375 9.609375 13.15625 9.355469 12.886719 9.214844 C 12.632812 9.058594 12.34375 8.984375 12.011719 9.003906 C 11.679688 9.003906 11.339844 9.074219 10.992188 9.214844 C 10.648438 9.355469 10.324219 9.53125 10.023438 9.734375 C 9.738281 9.925781 9.503906 10.136719 9.3125 10.375 C 9.125 10.59375 9.03125 10.800781 9.03125 10.988281 Z M 9.101562 19.695312 " fill-opacity="1" fill-rule="nonzero"/><g clip-path="url(#80c6deb6b5)"><g clip-path="url(#68514b14d3)"><path fill="#fe705a" d="M 2.6875 7.234375 L 31.421875 7.234375 L 31.421875 29.191406 L 2.6875 29.191406 Z M 2.6875 7.234375 " fill-opacity="1" fill-rule="nonzero"/></g></g><g fill="#ffffff" fill-opacity="1"><g transform="translate(4.142036, 22.976265)"><g><path d="M 13.359375 -10.59375 C 13.097656 -4.488281 13.257812 -1.285156 13.84375 -0.984375 C 13.738281 -0.703125 13.453125 -0.441406 12.984375 -0.203125 C 12.515625 0.0234375 12.09375 0.148438 11.71875 0.171875 C 11.3125 0.203125 10.972656 0.0859375 10.703125 -0.171875 C 10.441406 -0.441406 10.257812 -0.835938 10.15625 -1.359375 C 10.050781 -1.878906 9.976562 -2.4375 9.9375 -3.03125 C 9.90625 -3.632812 9.914062 -4.332031 9.96875 -5.125 C 10.03125 -5.925781 10.085938 -6.648438 10.140625 -7.296875 C 10.203125 -7.953125 10.28125 -8.675781 10.375 -9.46875 C 10.46875 -10.269531 10.523438 -10.882812 10.546875 -11.3125 C 10.578125 -11.5625 10.519531 -11.722656 10.375 -11.796875 C 10.226562 -11.878906 10.0625 -11.875 9.875 -11.78125 C 9.6875 -11.6875 9.535156 -11.550781 9.421875 -11.375 C 9.367188 -11.300781 9.335938 -11.242188 9.328125 -11.203125 C 9.160156 -10.929688 9.023438 -10.664062 8.921875 -10.40625 C 8.691406 -9.882812 8.488281 -9.226562 8.3125 -8.4375 C 8.207031 -7.945312 8.140625 -7.570312 8.109375 -7.3125 C 8.023438 -6.925781 7.96875 -6.53125 7.9375 -6.125 L 7.75 -4.890625 C 7.75 -4.828125 7.738281 -4.71875 7.71875 -4.5625 C 7.71875 -4.539062 7.707031 -4.507812 7.6875 -4.46875 C 7.675781 -4.4375 7.671875 -4.40625 7.671875 -4.375 C 7.671875 -4.363281 7.660156 -4.332031 7.640625 -4.28125 C 7.640625 -4.25 7.628906 -4.222656 7.609375 -4.203125 C 7.597656 -4.191406 7.59375 -4.179688 7.59375 -4.171875 L 7.578125 -4.15625 L 7.5625 -4.125 L 7.5625 -4.109375 L 7.53125 -4.078125 C 7.5 -4.046875 7.472656 -4.023438 7.453125 -4.015625 C 7.421875 -3.984375 7.378906 -3.96875 7.328125 -3.96875 L 7.21875 -3.96875 C 7.1875 -3.988281 7.148438 -4.003906 7.109375 -4.015625 C 7.097656 -4.023438 7.09375 -4.03125 7.09375 -4.03125 C 7.070312 -4.03125 7.0625 -4.035156 7.0625 -4.046875 L 7 -4.109375 C 6.988281 -4.109375 6.976562 -4.125 6.96875 -4.15625 L 6.9375 -4.1875 L 6.9375 -4.203125 C 6.925781 -4.222656 6.921875 -4.238281 6.921875 -4.25 C 6.898438 -4.300781 6.878906 -4.332031 6.859375 -4.34375 C 6.859375 -4.351562 6.851562 -4.367188 6.84375 -4.390625 C 6.84375 -4.410156 6.84375 -4.425781 6.84375 -4.4375 C 6.789062 -4.59375 6.757812 -4.703125 6.75 -4.765625 C 6.738281 -4.859375 6.710938 -4.972656 6.671875 -5.109375 C 6.640625 -5.253906 6.617188 -5.359375 6.609375 -5.421875 C 6.597656 -5.492188 6.582031 -5.597656 6.5625 -5.734375 C 6.539062 -5.878906 6.523438 -5.988281 6.515625 -6.0625 C 6.484375 -6.195312 6.445312 -6.410156 6.40625 -6.703125 C 6.363281 -6.992188 6.328125 -7.21875 6.296875 -7.375 C 6.273438 -7.5 6.238281 -7.707031 6.1875 -8 C 6.144531 -8.289062 6.113281 -8.503906 6.09375 -8.640625 C 6.070312 -8.722656 6.046875 -8.832031 6.015625 -8.96875 C 5.984375 -9.113281 5.960938 -9.21875 5.953125 -9.28125 C 5.910156 -9.457031 5.859375 -9.660156 5.796875 -9.890625 C 5.773438 -9.804688 5.765625 -9.757812 5.765625 -9.75 C 5.742188 -9.707031 5.722656 -9.65625 5.703125 -9.59375 C 5.691406 -9.53125 5.675781 -9.488281 5.65625 -9.46875 L 5.609375 -9.171875 C 5.578125 -9.109375 5.550781 -9.007812 5.53125 -8.875 C 5.394531 -8.195312 5.269531 -7.429688 5.15625 -6.578125 C 5.132812 -6.390625 5.101562 -6.148438 5.0625 -5.859375 C 5.019531 -5.566406 4.984375 -5.304688 4.953125 -5.078125 C 4.929688 -4.859375 4.910156 -4.648438 4.890625 -4.453125 C 4.742188 -3.316406 4.671875 -2.726562 4.671875 -2.6875 L 4.453125 -1.3125 C 4.453125 -1.289062 4.445312 -1.25 4.4375 -1.1875 C 4.4375 -1.132812 4.429688 -1.09375 4.421875 -1.0625 C 4.390625 -0.9375 4.375 -0.851562 4.375 -0.8125 C 4.363281 -0.789062 4.34375 -0.671875 4.3125 -0.453125 C 4.3125 -0.378906 4.300781 -0.332031 4.28125 -0.3125 L 4.28125 -0.296875 C 4.195312 0.128906 3.992188 0.472656 3.671875 0.734375 C 3.347656 0.992188 3.039062 1.160156 2.75 1.234375 C 2.46875 1.304688 2.1875 1.34375 1.90625 1.34375 C 1.4375 1.351562 1.054688 1.101562 0.765625 0.59375 C 0.484375 0.0820312 0.300781 -0.582031 0.21875 -1.40625 C 0.144531 -2.238281 0.109375 -3.175781 0.109375 -4.21875 C 0.109375 -5.269531 0.15625 -6.328125 0.25 -7.390625 C 0.351562 -8.460938 0.441406 -9.484375 0.515625 -10.453125 C 0.585938 -11.429688 0.648438 -12.265625 0.703125 -12.953125 C 0.753906 -13.648438 0.734375 -14.15625 0.640625 -14.46875 C 0.691406 -14.476562 0.757812 -14.488281 0.84375 -14.5 C 0.9375 -14.519531 1.109375 -14.535156 1.359375 -14.546875 C 1.617188 -14.554688 1.859375 -14.546875 2.078125 -14.515625 C 2.304688 -14.484375 2.554688 -14.40625 2.828125 -14.28125 C 3.097656 -14.164062 3.328125 -14.007812 3.515625 -13.8125 C 3.703125 -13.625 3.847656 -13.347656 3.953125 -12.984375 C 4.066406 -12.628906 4.109375 -12.207031 4.078125 -11.71875 C 3.921875 -9.945312 3.820312 -7.945312 3.78125 -5.71875 C 3.820312 -5.851562 3.867188 -6.035156 3.921875 -6.265625 C 3.984375 -6.503906 4.023438 -6.675781 4.046875 -6.78125 C 4.179688 -7.28125 4.285156 -7.65625 4.359375 -7.90625 C 4.390625 -8.039062 4.441406 -8.238281 4.515625 -8.5 L 4.6875 -9.09375 C 4.6875 -9.125 4.695312 -9.171875 4.71875 -9.234375 C 4.738281 -9.304688 4.753906 -9.363281 4.765625 -9.40625 C 4.816406 -9.53125 4.847656 -9.625 4.859375 -9.6875 C 4.890625 -9.769531 4.929688 -9.875 4.984375 -10 C 5.023438 -10.125 5.070312 -10.234375 5.125 -10.328125 C 5.144531 -10.410156 5.171875 -10.472656 5.203125 -10.515625 C 5.210938 -10.546875 5.242188 -10.601562 5.296875 -10.6875 L 5.390625 -10.78125 C 5.441406 -10.832031 5.488281 -10.867188 5.53125 -10.890625 C 5.5625 -10.929688 5.601562 -10.953125 5.65625 -10.953125 C 5.675781 -10.960938 5.710938 -10.96875 5.765625 -10.96875 L 5.84375 -10.96875 C 5.90625 -10.96875 5.960938 -10.953125 6.015625 -10.921875 C 6.066406 -10.898438 6.101562 -10.878906 6.125 -10.859375 C 6.175781 -10.816406 6.21875 -10.78125 6.25 -10.75 C 6.269531 -10.71875 6.289062 -10.675781 6.3125 -10.625 C 6.34375 -10.570312 6.375 -10.507812 6.40625 -10.4375 C 6.46875 -10.300781 6.503906 -10.191406 6.515625 -10.109375 C 6.609375 -9.753906 6.660156 -9.53125 6.671875 -9.4375 C 6.691406 -9.28125 6.726562 -9.0625 6.78125 -8.78125 C 6.832031 -8.488281 6.898438 -8.054688 6.984375 -7.484375 C 6.992188 -7.421875 7.007812 -7.3125 7.03125 -7.15625 C 7.050781 -7.007812 7.066406 -6.894531 7.078125 -6.8125 C 7.085938 -6.738281 7.101562 -6.628906 7.125 -6.484375 C 7.144531 -6.347656 7.160156 -6.25 7.171875 -6.1875 L 7.234375 -5.71875 C 7.242188 -5.78125 7.257812 -5.863281 7.28125 -5.96875 C 7.300781 -6.070312 7.3125 -6.148438 7.3125 -6.203125 L 7.484375 -7.40625 C 7.515625 -7.625 7.585938 -8.015625 7.703125 -8.578125 C 7.722656 -8.671875 7.757812 -8.84375 7.8125 -9.09375 C 7.875 -9.34375 7.925781 -9.53125 7.96875 -9.65625 C 8.144531 -10.1875 8.257812 -10.515625 8.3125 -10.640625 C 8.40625 -10.898438 8.550781 -11.195312 8.75 -11.53125 C 8.882812 -11.789062 9.0625 -12.046875 9.28125 -12.296875 C 9.507812 -12.515625 9.71875 -12.675781 9.90625 -12.78125 C 9.914062 -12.789062 9.921875 -12.796875 9.921875 -12.796875 C 9.953125 -12.796875 9.96875 -12.800781 9.96875 -12.8125 C 10.175781 -12.914062 10.414062 -12.992188 10.6875 -13.046875 C 10.707031 -13.046875 10.726562 -13.050781 10.75 -13.0625 C 10.8125 -13.082031 10.898438 -13.097656 11.015625 -13.109375 C 11.128906 -13.117188 11.332031 -13.109375 11.625 -13.078125 C 11.925781 -13.046875 12.191406 -12.96875 12.421875 -12.84375 C 12.648438 -12.71875 12.859375 -12.488281 13.046875 -12.15625 C 13.242188 -11.820312 13.347656 -11.398438 13.359375 -10.890625 Z M 5.625 -10.28125 L 5.640625 -10.28125 Z M 7.03125 -4.484375 Z M 7.03125 -4.484375 "/></g></g></g><g fill="#ffffff" fill-opacity="1"><g transform="translate(17.983832, 22.976265)"><g><path d="M 13.359375 -10.59375 C 13.097656 -4.488281 13.257812 -1.285156 13.84375 -0.984375 C 13.738281 -0.703125 13.453125 -0.441406 12.984375 -0.203125 C 12.515625 0.0234375 12.09375 0.148438 11.71875 0.171875 C 11.3125 0.203125 10.972656 0.0859375 10.703125 -0.171875 C 10.441406 -0.441406 10.257812 -0.835938 10.15625 -1.359375 C 10.050781 -1.878906 9.976562 -2.4375 9.9375 -3.03125 C 9.90625 -3.632812 9.914062 -4.332031 9.96875 -5.125 C 10.03125 -5.925781 10.085938 -6.648438 10.140625 -7.296875 C 10.203125 -7.953125 10.28125 -8.675781 10.375 -9.46875 C 10.46875 -10.269531 10.523438 -10.882812 10.546875 -11.3125 C 10.578125 -11.5625 10.519531 -11.722656 10.375 -11.796875 C 10.226562 -11.878906 10.0625 -11.875 9.875 -11.78125 C 9.6875 -11.6875 9.535156 -11.550781 9.421875 -11.375 C 9.367188 -11.300781 9.335938 -11.242188 9.328125 -11.203125 C 9.160156 -10.929688 9.023438 -10.664062 8.921875 -10.40625 C 8.691406 -9.882812 8.488281 -9.226562 8.3125 -8.4375 C 8.207031 -7.945312 8.140625 -7.570312 8.109375 -7.3125 C 8.023438 -6.925781 7.96875 -6.53125 7.9375 -6.125 L 7.75 -4.890625 C 7.75 -4.828125 7.738281 -4.71875 7.71875 -4.5625 C 7.71875 -4.539062 7.707031 -4.507812 7.6875 -4.46875 C 7.675781 -4.4375 7.671875 -4.40625 7.671875 -4.375 C 7.671875 -4.363281 7.660156 -4.332031 7.640625 -4.28125 C 7.640625 -4.25 7.628906 -4.222656 7.609375 -4.203125 C 7.597656 -4.191406 7.59375 -4.179688 7.59375 -4.171875 L 7.578125 -4.15625 L 7.5625 -4.125 L 7.5625 -4.109375 L 7.53125 -4.078125 C 7.5 -4.046875 7.472656 -4.023438 7.453125 -4.015625 C 7.421875 -3.984375 7.378906 -3.96875 7.328125 -3.96875 L 7.21875 -3.96875 C 7.1875 -3.988281 7.148438 -4.003906 7.109375 -4.015625 C 7.097656 -4.023438 7.09375 -4.03125 7.09375 -4.03125 C 7.070312 -4.03125 7.0625 -4.035156 7.0625 -4.046875 L 7 -4.109375 C 6.988281 -4.109375 6.976562 -4.125 6.96875 -4.15625 L 6.9375 -4.1875 L 6.9375 -4.203125 C 6.925781 -4.222656 6.921875 -4.238281 6.921875 -4.25 C 6.898438 -4.300781 6.878906 -4.332031 6.859375 -4.34375 C 6.859375 -4.351562 6.851562 -4.367188 6.84375 -4.390625 C 6.84375 -4.410156 6.84375 -4.425781 6.84375 -4.4375 C 6.789062 -4.59375 6.757812 -4.703125 6.75 -4.765625 C 6.738281 -4.859375 6.710938 -4.972656 6.671875 -5.109375 C 6.640625 -5.253906 6.617188 -5.359375 6.609375 -5.421875 C 6.597656 -5.492188 6.582031 -5.597656 6.5625 -5.734375 C 6.539062 -5.878906 6.523438 -5.988281 6.515625 -6.0625 C 6.484375 -6.195312 6.445312 -6.410156 6.40625 -6.703125 C 6.363281 -6.992188 6.328125 -7.21875 6.296875 -7.375 C 6.273438 -7.5 6.238281 -7.707031 6.1875 -8 C 6.144531 -8.289062 6.113281 -8.503906 6.09375 -8.640625 C 6.070312 -8.722656 6.046875 -8.832031 6.015625 -8.96875 C 5.984375 -9.113281 5.960938 -9.21875 5.953125 -9.28125 C 5.910156 -9.457031 5.859375 -9.660156 5.796875 -9.890625 C 5.773438 -9.804688 5.765625 -9.757812 5.765625 -9.75 C 5.742188 -9.707031 5.722656 -9.65625 5.703125 -9.59375 C 5.691406 -9.53125 5.675781 -9.488281 5.65625 -9.46875 L 5.609375 -9.171875 C 5.578125 -9.109375 5.550781 -9.007812 5.53125 -8.875 C 5.394531 -8.195312 5.269531 -7.429688 5.15625 -6.578125 C 5.132812 -6.390625 5.101562 -6.148438 5.0625 -5.859375 C 5.019531 -5.566406 4.984375 -5.304688 4.953125 -5.078125 C 4.929688 -4.859375 4.910156 -4.648438 4.890625 -4.453125 C 4.742188 -3.316406 4.671875 -2.726562 4.671875 -2.6875 L 4.453125 -1.3125 C 4.453125 -1.289062 4.445312 -1.25 4.4375 -1.1875 C 4.4375 -1.132812 4.429688 -1.09375 4.421875 -1.0625 C 4.390625 -0.9375 4.375 -0.851562 4.375 -0.8125 C 4.363281 -0.789062 4.34375 -0.671875 4.3125 -0.453125 C 4.3125 -0.378906 4.300781 -0.332031 4.28125 -0.3125 L 4.28125 -0.296875 C 4.195312 0.128906 3.992188 0.472656 3.671875 0.734375 C 3.347656 0.992188 3.039062 1.160156 2.75 1.234375 C 2.46875 1.304688 2.1875 1.34375 1.90625 1.34375 C 1.4375 1.351562 1.054688 1.101562 0.765625 0.59375 C 0.484375 0.0820312 0.300781 -0.582031 0.21875 -1.40625 C 0.144531 -2.238281 0.109375 -3.175781 0.109375 -4.21875 C 0.109375 -5.269531 0.15625 -6.328125 0.25 -7.390625 C 0.351562 -8.460938 0.441406 -9.484375 0.515625 -10.453125 C 0.585938 -11.429688 0.648438 -12.265625 0.703125 -12.953125 C 0.753906 -13.648438 0.734375 -14.15625 0.640625 -14.46875 C 0.691406 -14.476562 0.757812 -14.488281 0.84375 -14.5 C 0.9375 -14.519531 1.109375 -14.535156 1.359375 -14.546875 C 1.617188 -14.554688 1.859375 -14.546875 2.078125 -14.515625 C 2.304688 -14.484375 2.554688 -14.40625 2.828125 -14.28125 C 3.097656 -14.164062 3.328125 -14.007812 3.515625 -13.8125 C 3.703125 -13.625 3.847656 -13.347656 3.953125 -12.984375 C 4.066406 -12.628906 4.109375 -12.207031 4.078125 -11.71875 C 3.921875 -9.945312 3.820312 -7.945312 3.78125 -5.71875 C 3.820312 -5.851562 3.867188 -6.035156 3.921875 -6.265625 C 3.984375 -6.503906 4.023438 -6.675781 4.046875 -6.78125 C 4.179688 -7.28125 4.285156 -7.65625 4.359375 -7.90625 C 4.390625 -8.039062 4.441406 -8.238281 4.515625 -8.5 L 4.6875 -9.09375 C 4.6875 -9.125 4.695312 -9.171875 4.71875 -9.234375 C 4.738281 -9.304688 4.753906 -9.363281 4.765625 -9.40625 C 4.816406 -9.53125 4.847656 -9.625 4.859375 -9.6875 C 4.890625 -9.769531 4.929688 -9.875 4.984375 -10 C 5.023438 -10.125 5.070312 -10.234375 5.125 -10.328125 C 5.144531 -10.410156 5.171875 -10.472656 5.203125 -10.515625 C 5.210938 -10.546875 5.242188 -10.601562 5.296875 -10.6875 L 5.390625 -10.78125 C 5.441406 -10.832031 5.488281 -10.867188 5.53125 -10.890625 C 5.5625 -10.929688 5.601562 -10.953125 5.65625 -10.953125 C 5.675781 -10.960938 5.710938 -10.96875 5.765625 -10.96875 L 5.84375 -10.96875 C 5.90625 -10.96875 5.960938 -10.953125 6.015625 -10.921875 C 6.066406 -10.898438 6.101562 -10.878906 6.125 -10.859375 C 6.175781 -10.816406 6.21875 -10.78125 6.25 -10.75 C 6.269531 -10.71875 6.289062 -10.675781 6.3125 -10.625 C 6.34375 -10.570312 6.375 -10.507812 6.40625 -10.4375 C 6.46875 -10.300781 6.503906 -10.191406 6.515625 -10.109375 C 6.609375 -9.753906 6.660156 -9.53125 6.671875 -9.4375 C 6.691406 -9.28125 6.726562 -9.0625 6.78125 -8.78125 C 6.832031 -8.488281 6.898438 -8.054688 6.984375 -7.484375 C 6.992188 -7.421875 7.007812 -7.3125 7.03125 -7.15625 C 7.050781 -7.007812 7.066406 -6.894531 7.078125 -6.8125 C 7.085938 -6.738281 7.101562 -6.628906 7.125 -6.484375 C 7.144531 -6.347656 7.160156 -6.25 7.171875 -6.1875 L 7.234375 -5.71875 C 7.242188 -5.78125 7.257812 -5.863281 7.28125 -5.96875 C 7.300781 -6.070312 7.3125 -6.148438 7.3125 -6.203125 L 7.484375 -7.40625 C 7.515625 -7.625 7.585938 -8.015625 7.703125 -8.578125 C 7.722656 -8.671875 7.757812 -8.84375 7.8125 -9.09375 C 7.875 -9.34375 7.925781 -9.53125 7.96875 -9.65625 C 8.144531 -10.1875 8.257812 -10.515625 8.3125 -10.640625 C 8.40625 -10.898438 8.550781 -11.195312 8.75 -11.53125 C 8.882812 -11.789062 9.0625 -12.046875 9.28125 -12.296875 C 9.507812 -12.515625 9.71875 -12.675781 9.90625 -12.78125 C 9.914062 -12.789062 9.921875 -12.796875 9.921875 -12.796875 C 9.953125 -12.796875 9.96875 -12.800781 9.96875 -12.8125 C 10.175781 -12.914062 10.414062 -12.992188 10.6875 -13.046875 C 10.707031 -13.046875 10.726562 -13.050781 10.75 -13.0625 C 10.8125 -13.082031 10.898438 -13.097656 11.015625 -13.109375 C 11.128906 -13.117188 11.332031 -13.109375 11.625 -13.078125 C 11.925781 -13.046875 12.191406 -12.96875 12.421875 -12.84375 C 12.648438 -12.71875 12.859375 -12.488281 13.046875 -12.15625 C 13.242188 -11.820312 13.347656 -11.398438 13.359375 -10.890625 Z M 5.625 -10.28125 L 5.640625 -10.28125 Z M 7.03125 -4.484375 Z M 7.03125 -4.484375 "/></g></g></g></svg>